<?xml version="1.0" encoding="UTF-8" standalone="no"?>
<!-- Created with Inkscape (http://www.inkscape.org/) -->

<svg
   xmlns:dc="http://purl.org/dc/elements/1.1/"
   xmlns:cc="http://creativecommons.org/ns#"
   xmlns:rdf="http://www.w3.org/1999/02/22-rdf-syntax-ns#"
   xmlns:svg="http://www.w3.org/2000/svg"
   xmlns="http://www.w3.org/2000/svg"
   xmlns:sodipodi="http://sodipodi.sourceforge.net/DTD/sodipodi-0.dtd"
   xmlns:inkscape="http://www.inkscape.org/namespaces/inkscape"
   width="1900"
   height="1200"
   viewBox="0 0 502.70831 317.50001"
   version="1.1"
   id="svg8"
   inkscape:version="0.92.2 (5c3e80d, 2017-08-06)"
   sodipodi:docname="Background.svg">
  <defs
     id="defs2" />
  <sodipodi:namedview
     id="base"
     pagecolor="#ffffff"
     bordercolor="#666666"
     borderopacity="1.0"
     inkscape:pageopacity="0.0"
     inkscape:pageshadow="2"
     inkscape:zoom="0.5"
     inkscape:cx="445.91804"
     inkscape:cy="489.67612"
     inkscape:document-units="mm"
     inkscape:current-layer="layer1"
     showgrid="true"
     units="px"
     inkscape:window-width="1920"
     inkscape:window-height="1003"
     inkscape:window-x="-9"
     inkscape:window-y="-9"
     inkscape:window-maximized="1">
    <inkscape:grid
       type="xygrid"
       id="grid815" />
  </sodipodi:namedview>
  <metadata
     id="metadata5">
    <rdf:RDF>
      <cc:Work
         rdf:about="">
        <dc:format>image/svg+xml</dc:format>
        <dc:type
           rdf:resource="http://purl.org/dc/dcmitype/StillImage" />
        <dc:title></dc:title>
      </cc:Work>
    </rdf:RDF>
  </metadata>
  <g
     inkscape:label="Layer 1"
     inkscape:groupmode="layer"
     id="layer1"
     transform="translate(0,20.500013)">
    <g
       id="g817"
       transform="matrix(2.282252,0,0,2.282252,95.282913,-386.2191)">
      <ellipse
         ry="67.173363"
         rx="67.090775"
         cy="229.44864"
         cx="67.657738"
         id="path4332"
         style="fill:#f2d52c;fill-opacity:1;stroke:none;stroke-width:0.39800382;stroke-linecap:square;stroke-linejoin:round;stroke-miterlimit:4;stroke-dasharray:none;stroke-opacity:1;paint-order:markers fill stroke" />
      <path
         inkscape:connector-curvature="0"
         id="path4330"
         d="M 53.074635,286.88237 C 37.010314,282.67354 23.369846,271.64432 15.331258,256.36439 4.224852,235.25307 7.9691448,207.40806 24.312777,189.57187 c 4.385939,-4.78648 14.112895,-12.32668 15.901587,-12.32668 0.343762,0 0.840962,2.57569 1.104888,5.72375 0.566568,6.75809 1.976409,10.30245 4.098008,10.30245 0.845879,0 3.083322,-1.98319 4.996006,-4.42829 6.448907,-8.24402 6.673637,-8.44992 8.011141,-7.33989 0.668967,0.5552 1.221482,2.19656 1.227817,3.64749 0.01611,3.69509 0.808193,6.24411 2.093493,6.73732 0.6024,0.23117 2.506194,-0.3359 4.230638,-1.26015 3.823993,-2.04954 5.137458,-1.64846 5.894873,1.80003 0.319452,1.45444 1.121192,2.8518 1.781657,3.10525 1.569867,0.60241 5.721478,-1.14369 7.566414,-3.18232 2.326219,-2.57044 4.107033,-1.91256 7.629144,2.81839 2.971594,3.99149 3.651897,4.45403 6.896831,4.68915 2.547557,0.1846 4.450506,-0.26475 6.509026,-1.53699 5.27205,-3.2583 7.91086,-0.47901 6.85553,7.22049 -1.24093,9.05359 3.18577,8.12841 8.11024,-1.69504 l 2.0982,-4.18552 2.2688,4.47727 c 5.55317,10.95864 7.13217,27.31239 3.86901,40.07124 -5.27527,20.62608 -22.13792,37.44996 -42.844299,42.74576 -8.43311,2.15683 -21.145797,2.12532 -29.537146,-0.0732 z m -1.645654,-9.8952 c 0.730432,-0.81186 2.945108,-7.11444 4.921501,-14.00573 2.920782,-10.18418 3.432592,-12.95582 2.734086,-14.80636 -0.624178,-1.65366 -0.538666,-3.37657 0.312485,-6.2956 1.387574,-4.7587 -1.177908,-4.97371 23.017724,1.92904 12.931495,3.68922 17.540511,4.69239 18.279303,3.97857 1.33625,-1.29107 6.34369,-18.79585 6.01901,-21.04096 -0.19701,-1.36221 -1.36977,-2.12711 -4.89818,-3.19468 -4.537549,-1.3729 -4.633529,-1.4667 -4.382027,-4.28222 0.175065,-1.95976 -0.228779,-3.30684 -1.265226,-4.22031 -0.837302,-0.73796 -13.183537,-4.66187 -27.436079,-8.7198 -30.453162,-8.6705 -28.990248,-8.72798 -31.43178,1.23491 -0.802406,3.27432 -1.228593,6.87105 -0.947072,7.99272 0.608919,2.42612 0.225235,2.29054 31.072751,10.97941 24.302831,6.84542 26.033964,7.00783 27.153435,2.54747 0.508781,-2.02713 0.852695,-2.21084 3.243584,-1.73267 1.47096,0.2942 2.964954,0.82538 3.319994,1.18042 0.64118,0.64118 -2.350468,12.67926 -3.443016,13.85435 -0.313995,0.33772 -9.247629,-1.84797 -19.852525,-4.85708 -13.27292,-3.76615 -19.596992,-5.20937 -20.293625,-4.63121 -0.556607,0.46194 -1.53655,3.02719 -2.177665,5.70056 -0.711681,2.96767 -1.966271,5.60297 -3.221392,6.76664 -1.495134,1.3862 -3.051472,5.29657 -5.707063,14.33923 -2.008217,6.83829 -3.656907,13.09751 -3.66374,13.90936 -0.01771,2.10113 3.008623,4.85003 5.339481,4.85003 1.087892,0 2.575604,-0.66424 3.306036,-1.47609 z"
         style="fill:#ffffff;fill-opacity:1;stroke-width:0.84348392" />
    </g>
  </g>
</svg>
